<svg width="20" height="22" viewBox="0 0 20 22" fill="none" xmlns="http://www.w3.org/2000/svg">
<g id="consulta/linha">
<g id="color/black-ter">
<path id="Combined Shape" fill-rule="evenodd" clip-rule="evenodd" d="M15.2043 13.6379H15.1053H10.9686V11.5006C13.2312 11.2806 14.9664 9.39741 14.9699 7.13644V6.47622C14.9681 6.03933 14.7038 5.64873 14.303 5.479V2.84585C14.303 2.2752 13.8601 1.80738 13.2967 1.76059C13.2495 1.38611 12.9271 1.09668 12.5368 1.09668C12.5181 1.09668 12.4996 1.09714 12.4811 1.09805C12.4668 1.09714 12.4523 1.09668 12.4378 1.09668C11.8853 1.09668 11.4374 1.53996 11.4374 2.08678C11.4374 2.10298 11.4378 2.11908 11.4386 2.13509C11.4378 2.15189 11.4374 2.16879 11.4374 2.18579C11.4374 2.78752 11.9299 3.2749 12.5368 3.2749C12.9196 3.2749 13.2371 2.99648 13.2937 2.63247C13.3786 2.66728 13.4381 2.74983 13.4381 2.84585V5.44783C13.0398 5.58719 12.773 5.95913 12.7712 6.37721V6.4758V7.03727C12.7696 7.67663 12.5014 8.28698 12.03 8.72407C11.6115 9.11481 11.063 9.33538 10.4929 9.3476C10.4562 9.3468 10.4195 9.34509 10.3828 9.34247C9.18848 9.23518 8.27952 8.23229 8.30101 7.04468L8.30102 6.47622C8.29919 6.03933 8.03493 5.64873 7.63414 5.479V2.84585C7.63414 2.74983 7.69367 2.66728 7.77855 2.63247C7.83518 2.99648 8.15267 3.2749 8.53546 3.2749C9.14238 3.2749 9.6348 2.78752 9.6348 2.18579C9.6348 1.58406 9.14238 1.09668 8.53546 1.09668C8.51995 1.09668 8.50456 1.09714 8.48928 1.09804C8.47179 1.09714 8.45417 1.09668 8.43645 1.09668C8.06814 1.09668 7.76956 1.3922 7.76956 1.75675C7.21709 1.75675 6.76923 2.20003 6.76923 2.74684V2.84585V5.44783C6.37098 5.58719 6.1041 5.95913 6.10234 6.37721V7.03727V7.13628C6.10584 9.39741 7.84106 11.2806 10.1037 11.5006V13.6379H6.25318C6.04488 12.6571 5.15781 11.9645 4.15026 11.9883C4.07831 11.9865 4.00559 11.9886 3.93235 11.9947C2.89592 12.0808 2.099 12.9385 2.099 13.968C2.099 13.9843 2.0992 14.0006 2.0996 14.0169C2.0992 14.0335 2.099 14.0502 2.099 14.067C2.099 15.1481 2.93561 16.0486 4.02316 16.1389C5.08238 16.2269 6.03616 15.5179 6.25318 14.496H10.1037V16.9383V17.0373C10.1061 19.2785 11.9406 21.0943 14.2039 21.0967H15.2043C17.2845 21.0967 18.9712 19.4272 18.9712 17.3673C18.9712 15.3074 17.2845 13.6379 15.2043 13.6379ZM18.7732 17.3673C18.7732 17.3509 18.7731 17.3346 18.7728 17.3182C18.7459 19.299 17.1162 20.8966 15.1091 20.8987H15.2043C17.1756 20.8987 18.7732 19.3174 18.7732 17.3673ZM10.862 11.3112L10.7705 11.4099V11.3109C13.0263 11.1373 14.7684 9.27672 14.7719 7.03727V7.13628C14.7685 9.32369 13.0664 11.1416 10.862 11.3112ZM12.5368 3.07688C12.5189 3.07688 12.5011 3.07636 12.4835 3.07535C12.8305 3.05208 13.1047 2.76613 13.1047 2.41681C13.1349 2.41681 13.1643 2.42081 13.1922 2.4283L13.1047 2.51582C13.1047 2.82546 12.8506 3.07688 12.5368 3.07688ZM8.103 7.02996L8.103 6.94387C8.10248 6.97268 8.10249 7.00137 8.103 7.02996ZM8.103 6.94387V6.47631L8.10301 6.47663L8.103 6.94387ZM7.76966 2.42809C7.57862 2.47245 7.43612 2.64249 7.43612 2.84585L7.43612 2.74684C7.43612 2.56457 7.58541 2.41681 7.76956 2.41681L7.76966 2.42809ZM8.53546 3.07688C8.52114 3.07688 8.50695 3.07635 8.49291 3.07533C9.00212 3.04728 9.4097 2.64228 9.43548 2.13761C9.43634 2.15356 9.43678 2.16962 9.43678 2.18579C9.43678 2.67769 9.03347 3.07688 8.53546 3.07688ZM6.07375 14.3803C5.91535 15.3079 5.09121 15.9713 4.15156 15.9476C5.09722 15.9242 5.91131 15.2409 6.07234 14.298L6.17134 14.298L6.07375 14.3803ZM12.4378 1.75675V1.76805C12.2636 1.80854 12.1298 1.95353 12.1076 2.13298C12.1054 2.11788 12.1043 2.10246 12.1043 2.08678C12.1043 1.90451 12.2536 1.75675 12.4378 1.75675ZM12.3023 2.18579C12.3023 2.09319 12.3577 2.01312 12.4378 1.97631V2.39527C12.3577 2.35845 12.3023 2.27838 12.3023 2.18579ZM8.43645 1.85576L8.52397 1.76823C8.49608 1.76074 8.46673 1.75675 8.43645 1.75675L8.43645 1.85576ZM8.63447 2.35234C8.70274 2.30238 8.75106 2.22725 8.76544 2.1408C8.75081 2.06778 8.70123 2.00701 8.63447 1.97631V2.35234ZM4.10169 12.6478C4.11796 12.6478 4.13418 12.6481 4.15031 12.6487C3.39944 12.6744 2.79502 13.2725 2.7688 14.0166C2.76821 14.0004 2.76791 13.9842 2.76791 13.968C2.76791 13.2389 3.36506 12.6478 4.10169 12.6478ZM4.2007 12.8459C4.86642 12.8459 5.40874 13.3667 5.4345 14.0185C5.40832 14.7076 4.84846 15.2615 4.15213 15.2872C3.49249 15.2619 2.96593 14.7251 2.96593 14.067C2.96593 13.3928 3.51853 12.8459 4.2007 12.8459ZM13.7715 6.04717C13.7873 6.04717 13.8027 6.04825 13.8178 6.05033C13.604 6.07612 13.4381 6.25677 13.4381 6.47622V6.37721C13.4381 6.19494 13.5874 6.04717 13.7715 6.04717ZM12.4858 9.20625C13.0918 8.64413 13.4364 7.8593 13.4381 7.03727V7.13628C13.4364 7.93058 13.1033 8.68921 12.5175 9.23267C11.9693 9.74357 11.2426 10.0203 10.4939 10.0077C11.2323 9.99541 11.9436 9.71161 12.4858 9.20625ZM7.43612 6.47622L7.43612 6.94387C7.43574 6.97162 7.43574 6.9993 7.43612 7.02689V7.04288C7.4138 8.68058 8.67388 10.0581 10.323 10.1983C11.1821 10.2588 12.0262 9.96124 12.6523 9.37769C13.2782 8.79707 13.6343 7.98604 13.6361 7.13649V6.47622C13.6361 6.34886 13.7408 6.24519 13.8705 6.24519C14.0002 6.24519 14.105 6.34886 14.105 6.47622V7.03727C14.105 9.0258 12.4897 10.6409 10.4869 10.6673C8.53836 10.6413 6.96725 9.07013 6.96725 7.13628V6.47622C6.96725 6.34886 7.07198 6.24519 7.20168 6.24519C7.33123 6.24519 7.43586 6.3486 7.43612 6.47575L7.43612 6.47622ZM7.10267 6.04717C7.11839 6.04717 7.13384 6.04825 7.14898 6.05033C6.93517 6.07612 6.76923 6.25677 6.76923 6.47622V6.37721C6.76923 6.19494 6.91852 6.04717 7.10267 6.04717ZM10.7705 14.298H10.8696L10.7705 14.397V14.298ZM10.9686 17.0372C10.9705 18.8042 12.4178 20.2367 14.204 20.2386H15.1053C16.7459 20.2386 18.079 18.9356 18.1059 17.3182C18.0794 15.7553 16.7907 14.496 15.2043 14.496H10.9686V17.0372ZM4.2007 14.9276C3.72539 14.9276 3.34007 14.5423 3.34007 14.067C3.34007 14.0498 3.34057 14.0328 3.34156 14.016C3.34057 14.0001 3.34007 13.9841 3.34007 13.968C3.34007 13.5473 3.68106 13.2064 4.10169 13.2064C4.1178 13.2064 4.1338 13.2069 4.14967 13.2078C4.16655 13.2069 4.18357 13.2064 4.2007 13.2064C4.67601 13.2064 5.06132 13.5917 5.06132 14.067C5.06132 14.5423 4.67601 14.9276 4.2007 14.9276ZM4.15292 14.7279C4.1687 14.729 4.18463 14.7296 4.2007 14.7296C4.56664 14.7296 4.8633 14.4329 4.8633 14.067C4.8633 14.0509 4.86273 14.035 4.8616 14.0192C4.83638 14.399 4.53272 14.7027 4.15292 14.7279Z" fill="#0099CC"/>
<mask id="mask0_0_9051" style="mask-type:luminance" maskUnits="userSpaceOnUse" x="2" y="1" width="17" height="21">
<path id="Combined Shape_2" fill-rule="evenodd" clip-rule="evenodd" d="M15.2043 13.6379H15.1053H10.9686V11.5006C13.2312 11.2806 14.9664 9.39741 14.9699 7.13644V6.47622C14.9681 6.03933 14.7038 5.64873 14.303 5.479V2.84585C14.303 2.2752 13.8601 1.80738 13.2967 1.76059C13.2495 1.38611 12.9271 1.09668 12.5368 1.09668C12.5181 1.09668 12.4996 1.09714 12.4811 1.09805C12.4668 1.09714 12.4523 1.09668 12.4378 1.09668C11.8853 1.09668 11.4374 1.53996 11.4374 2.08678C11.4374 2.10298 11.4378 2.11908 11.4386 2.13509C11.4378 2.15189 11.4374 2.16879 11.4374 2.18579C11.4374 2.78752 11.9299 3.2749 12.5368 3.2749C12.9196 3.2749 13.2371 2.99648 13.2937 2.63247C13.3786 2.66728 13.4381 2.74983 13.4381 2.84585V5.44783C13.0398 5.58719 12.773 5.95913 12.7712 6.37721V6.4758V7.03727C12.7696 7.67663 12.5014 8.28698 12.03 8.72407C11.6115 9.11481 11.063 9.33538 10.4929 9.3476C10.4562 9.3468 10.4195 9.34509 10.3828 9.34247C9.18848 9.23518 8.27952 8.23229 8.30101 7.04468L8.30102 6.47622C8.29919 6.03933 8.03493 5.64873 7.63414 5.479V2.84585C7.63414 2.74983 7.69367 2.66728 7.77855 2.63247C7.83518 2.99648 8.15267 3.2749 8.53546 3.2749C9.14238 3.2749 9.6348 2.78752 9.6348 2.18579C9.6348 1.58406 9.14238 1.09668 8.53546 1.09668C8.51995 1.09668 8.50456 1.09714 8.48928 1.09804C8.47179 1.09714 8.45417 1.09668 8.43645 1.09668C8.06814 1.09668 7.76956 1.3922 7.76956 1.75675C7.21709 1.75675 6.76923 2.20003 6.76923 2.74684V2.84585V5.44783C6.37098 5.58719 6.1041 5.95913 6.10234 6.37721V7.03727V7.13628C6.10584 9.39741 7.84106 11.2806 10.1037 11.5006V13.6379H6.25318C6.04488 12.6571 5.15781 11.9645 4.15026 11.9883C4.07831 11.9865 4.00559 11.9886 3.93235 11.9947C2.89592 12.0808 2.099 12.9385 2.099 13.968C2.099 13.9843 2.0992 14.0006 2.0996 14.0169C2.0992 14.0335 2.099 14.0502 2.099 14.067C2.099 15.1481 2.93561 16.0486 4.02316 16.1389C5.08238 16.2269 6.03616 15.5179 6.25318 14.496H10.1037V16.9383V17.0373C10.1061 19.2785 11.9406 21.0943 14.2039 21.0967H15.2043C17.2845 21.0967 18.9712 19.4272 18.9712 17.3673C18.9712 15.3074 17.2845 13.6379 15.2043 13.6379ZM18.7732 17.3673C18.7732 17.3509 18.7731 17.3346 18.7728 17.3182C18.7459 19.299 17.1162 20.8966 15.1091 20.8987H15.2043C17.1756 20.8987 18.7732 19.3174 18.7732 17.3673ZM10.862 11.3112L10.7705 11.4099V11.3109C13.0263 11.1373 14.7684 9.27672 14.7719 7.03727V7.13628C14.7685 9.32369 13.0664 11.1416 10.862 11.3112ZM12.5368 3.07688C12.5189 3.07688 12.5011 3.07636 12.4835 3.07535C12.8305 3.05208 13.1047 2.76613 13.1047 2.41681C13.1349 2.41681 13.1643 2.42081 13.1922 2.4283L13.1047 2.51582C13.1047 2.82546 12.8506 3.07688 12.5368 3.07688ZM8.103 7.02996L8.103 6.94387C8.10248 6.97268 8.10249 7.00137 8.103 7.02996ZM8.103 6.94387V6.47631L8.10301 6.47663L8.103 6.94387ZM7.76966 2.42809C7.57862 2.47245 7.43612 2.64249 7.43612 2.84585L7.43612 2.74684C7.43612 2.56457 7.58541 2.41681 7.76956 2.41681L7.76966 2.42809ZM8.53546 3.07688C8.52114 3.07688 8.50695 3.07635 8.49291 3.07533C9.00212 3.04728 9.4097 2.64228 9.43548 2.13761C9.43634 2.15356 9.43678 2.16962 9.43678 2.18579C9.43678 2.67769 9.03347 3.07688 8.53546 3.07688ZM6.07375 14.3803C5.91535 15.3079 5.09121 15.9713 4.15156 15.9476C5.09722 15.9242 5.91131 15.2409 6.07234 14.298L6.17134 14.298L6.07375 14.3803ZM12.4378 1.75675V1.76805C12.2636 1.80854 12.1298 1.95353 12.1076 2.13298C12.1054 2.11788 12.1043 2.10246 12.1043 2.08678C12.1043 1.90451 12.2536 1.75675 12.4378 1.75675ZM12.3023 2.18579C12.3023 2.09319 12.3577 2.01312 12.4378 1.97631V2.39527C12.3577 2.35845 12.3023 2.27838 12.3023 2.18579ZM8.43645 1.85576L8.52397 1.76823C8.49608 1.76074 8.46673 1.75675 8.43645 1.75675L8.43645 1.85576ZM8.63447 2.35234C8.70274 2.30238 8.75106 2.22725 8.76544 2.1408C8.75081 2.06778 8.70123 2.00701 8.63447 1.97631V2.35234ZM4.10169 12.6478C4.11796 12.6478 4.13418 12.6481 4.15031 12.6487C3.39944 12.6744 2.79502 13.2725 2.7688 14.0166C2.76821 14.0004 2.76791 13.9842 2.76791 13.968C2.76791 13.2389 3.36506 12.6478 4.10169 12.6478ZM4.2007 12.8459C4.86642 12.8459 5.40874 13.3667 5.4345 14.0185C5.40832 14.7076 4.84846 15.2615 4.15213 15.2872C3.49249 15.2619 2.96593 14.7251 2.96593 14.067C2.96593 13.3928 3.51853 12.8459 4.2007 12.8459ZM13.7715 6.04717C13.7873 6.04717 13.8027 6.04825 13.8178 6.05033C13.604 6.07612 13.4381 6.25677 13.4381 6.47622V6.37721C13.4381 6.19494 13.5874 6.04717 13.7715 6.04717ZM12.4858 9.20625C13.0918 8.64413 13.4364 7.8593 13.4381 7.03727V7.13628C13.4364 7.93058 13.1033 8.68921 12.5175 9.23267C11.9693 9.74357 11.2426 10.0203 10.4939 10.0077C11.2323 9.99541 11.9436 9.71161 12.4858 9.20625ZM7.43612 6.47622L7.43612 6.94387C7.43574 6.97162 7.43574 6.9993 7.43612 7.02689V7.04288C7.4138 8.68058 8.67388 10.0581 10.323 10.1983C11.1821 10.2588 12.0262 9.96124 12.6523 9.37769C13.2782 8.79707 13.6343 7.98604 13.6361 7.13649V6.47622C13.6361 6.34886 13.7408 6.24519 13.8705 6.24519C14.0002 6.24519 14.105 6.34886 14.105 6.47622V7.03727C14.105 9.0258 12.4897 10.6409 10.4869 10.6673C8.53836 10.6413 6.96725 9.07013 6.96725 7.13628V6.47622C6.96725 6.34886 7.07198 6.24519 7.20168 6.24519C7.33123 6.24519 7.43586 6.3486 7.43612 6.47575L7.43612 6.47622ZM7.10267 6.04717C7.11839 6.04717 7.13384 6.04825 7.14898 6.05033C6.93517 6.07612 6.76923 6.25677 6.76923 6.47622V6.37721C6.76923 6.19494 6.91852 6.04717 7.10267 6.04717ZM10.7705 14.298H10.8696L10.7705 14.397V14.298ZM10.9686 17.0372C10.9705 18.8042 12.4178 20.2367 14.204 20.2386H15.1053C16.7459 20.2386 18.079 18.9356 18.1059 17.3182C18.0794 15.7553 16.7907 14.496 15.2043 14.496H10.9686V17.0372ZM4.2007 14.9276C3.72539 14.9276 3.34007 14.5423 3.34007 14.067C3.34007 14.0498 3.34057 14.0328 3.34156 14.016C3.34057 14.0001 3.34007 13.9841 3.34007 13.968C3.34007 13.5473 3.68106 13.2064 4.10169 13.2064C4.1178 13.2064 4.1338 13.2069 4.14967 13.2078C4.16655 13.2069 4.18357 13.2064 4.2007 13.2064C4.67601 13.2064 5.06132 13.5917 5.06132 14.067C5.06132 14.5423 4.67601 14.9276 4.2007 14.9276ZM4.15292 14.7279C4.1687 14.729 4.18463 14.7296 4.2007 14.7296C4.56664 14.7296 4.8633 14.4329 4.8633 14.067C4.8633 14.0509 4.86273 14.035 4.8616 14.0192C4.83638 14.399 4.53272 14.7027 4.15292 14.7279Z" fill="white"/>
</mask>
<g mask="url(#mask0_0_9051)">
</g>
</g>
</g>
</svg>
