<svg width="20" height="22" viewBox="0 0 20 22" fill="none" xmlns="http://www.w3.org/2000/svg">
<g id="consulta/cheio">
<g id="color/black-ter">
<path id="Combined Shape" fill-rule="evenodd" clip-rule="evenodd" d="M15.1053 13.6379H15.2043C17.2845 13.6379 18.9712 15.3074 18.9712 17.3673C18.9712 19.4272 17.2845 21.0967 15.2043 21.0967H14.2039C11.9406 21.0943 10.1061 19.2785 10.1037 17.0373V16.9383V14.496H6.25318C6.03616 15.5179 5.08238 16.2269 4.02316 16.1389C2.93561 16.0486 2.099 15.1481 2.099 14.067C2.099 14.0502 2.0992 14.0335 2.0996 14.0169C2.0992 14.0006 2.099 13.9843 2.099 13.968C2.099 12.9385 2.89592 12.0808 3.93235 11.9947C4.00559 11.9886 4.07831 11.9865 4.15026 11.9883C5.15781 11.9645 6.04488 12.6571 6.25318 13.6379H10.1037V11.5006C7.84106 11.2806 6.10584 9.39741 6.10234 7.13628V7.03727V6.37721C6.1041 5.95913 6.37098 5.58719 6.76923 5.44783V2.84585V2.74684C6.76923 2.20003 7.21709 1.75675 7.76956 1.75675C7.76956 1.3922 8.06814 1.09668 8.43645 1.09668C8.45417 1.09668 8.47179 1.09714 8.48928 1.09804C8.50456 1.09714 8.51995 1.09668 8.53546 1.09668C9.14238 1.09668 9.6348 1.58406 9.6348 2.18579C9.6348 2.78752 9.14238 3.2749 8.53546 3.2749C8.15267 3.2749 7.83518 2.99648 7.77855 2.63247C7.69367 2.66728 7.63414 2.74983 7.63414 2.84585V5.479C8.03493 5.64873 8.29919 6.03933 8.30102 6.47622L8.30101 7.04468C8.27952 8.23229 9.18848 9.23518 10.3828 9.34247C10.4195 9.34509 10.4562 9.3468 10.4929 9.3476C11.063 9.33538 11.6115 9.11481 12.03 8.72407C12.5014 8.28698 12.7696 7.67663 12.7712 7.03727V6.4758V6.37721C12.773 5.95913 13.0398 5.58719 13.4381 5.44783V2.84585C13.4381 2.74983 13.3786 2.66728 13.2937 2.63247C13.2371 2.99648 12.9196 3.2749 12.5368 3.2749C11.9299 3.2749 11.4374 2.78752 11.4374 2.18579C11.4374 2.16879 11.4378 2.15189 11.4386 2.13509C11.4378 2.11908 11.4374 2.10298 11.4374 2.08678C11.4374 1.53996 11.8853 1.09668 12.4378 1.09668C12.4523 1.09668 12.4668 1.09714 12.4811 1.09805C12.4996 1.09714 12.5181 1.09668 12.5368 1.09668C12.9271 1.09668 13.2495 1.38611 13.2967 1.76059C13.8601 1.80738 14.303 2.2752 14.303 2.84585V5.479C14.7038 5.64873 14.9681 6.03933 14.9699 6.47622V7.13644C14.9664 9.39741 13.2312 11.2806 10.9686 11.5006V13.6379H15.1053ZM15.2043 20.8987H15.1091C17.1162 20.8966 18.7459 19.299 18.7728 17.3182C18.7731 17.3346 18.7732 17.3509 18.7732 17.3673C18.7732 19.3174 17.1756 20.8987 15.2043 20.8987ZM6.07234 14.298L6.17134 14.298L6.07375 14.3803C5.91535 15.3079 5.09121 15.9713 4.15156 15.9476C5.09722 15.9242 5.91131 15.2409 6.07234 14.298ZM8.49291 3.07533C9.00212 3.04728 9.4097 2.64228 9.43548 2.13761C9.43634 2.15356 9.43678 2.16962 9.43678 2.18579C9.43678 2.67769 9.03347 3.07688 8.53546 3.07688C8.52114 3.07688 8.50695 3.07635 8.49291 3.07533ZM7.76956 2.41681L7.76966 2.42809C7.57862 2.47245 7.43612 2.64249 7.43612 2.84585L7.43612 2.74684C7.43612 2.56457 7.58541 2.41681 7.76956 2.41681ZM8.103 6.94387C8.10248 6.97268 8.10249 7.00137 8.103 7.02996L8.103 6.94387ZM8.103 6.94387V6.47631L8.10301 6.47663L8.103 6.94387ZM13.1047 2.41681C13.1349 2.41681 13.1643 2.42081 13.1922 2.4283L13.1047 2.51582C13.1047 2.82546 12.8506 3.07688 12.5368 3.07688C12.5189 3.07688 12.5011 3.07636 12.4835 3.07535C12.8305 3.05208 13.1047 2.76613 13.1047 2.41681ZM10.7705 11.3109C13.0263 11.1373 14.7684 9.27672 14.7719 7.03727V7.13628C14.7685 9.32369 13.0664 11.1416 10.862 11.3112L10.7705 11.4099V11.3109ZM12.3023 2.18579C12.3023 2.09319 12.3577 2.01312 12.4378 1.97631V2.39527C12.3577 2.35845 12.3023 2.27838 12.3023 2.18579ZM12.1076 2.13298C12.1298 1.95353 12.2636 1.80854 12.4378 1.76805V1.75675C12.2536 1.75675 12.1043 1.90451 12.1043 2.08678C12.1043 2.10246 12.1054 2.11788 12.1076 2.13298ZM8.63447 2.35234C8.70274 2.30238 8.75106 2.22725 8.76544 2.1408C8.75081 2.06778 8.70123 2.00701 8.63447 1.97631V2.35234ZM8.43645 1.75675C8.46673 1.75675 8.49608 1.76074 8.52397 1.76823L8.43645 1.85576L8.43645 1.75675ZM10.9686 17.0372C10.9705 18.8042 12.4178 20.2367 14.204 20.2386H15.1053C16.7459 20.2386 18.079 18.9356 18.1059 17.3182C18.0794 15.7553 16.7907 14.496 15.2043 14.496H10.9686V17.0372ZM10.7705 14.298H10.8696L10.7705 14.397V14.298Z" fill="#0099CC"/>
<mask id="mask0_0_10879" style="mask-type:luminance" maskUnits="userSpaceOnUse" x="2" y="1" width="17" height="21">
<path id="Combined Shape_2" fill-rule="evenodd" clip-rule="evenodd" d="M15.1053 13.6379H15.2043C17.2845 13.6379 18.9712 15.3074 18.9712 17.3673C18.9712 19.4272 17.2845 21.0967 15.2043 21.0967H14.2039C11.9406 21.0943 10.1061 19.2785 10.1037 17.0373V16.9383V14.496H6.25318C6.03616 15.5179 5.08238 16.2269 4.02316 16.1389C2.93561 16.0486 2.099 15.1481 2.099 14.067C2.099 14.0502 2.0992 14.0335 2.0996 14.0169C2.0992 14.0006 2.099 13.9843 2.099 13.968C2.099 12.9385 2.89592 12.0808 3.93235 11.9947C4.00559 11.9886 4.07831 11.9865 4.15026 11.9883C5.15781 11.9645 6.04488 12.6571 6.25318 13.6379H10.1037V11.5006C7.84106 11.2806 6.10584 9.39741 6.10234 7.13628V7.03727V6.37721C6.1041 5.95913 6.37098 5.58719 6.76923 5.44783V2.84585V2.74684C6.76923 2.20003 7.21709 1.75675 7.76956 1.75675C7.76956 1.3922 8.06814 1.09668 8.43645 1.09668C8.45417 1.09668 8.47179 1.09714 8.48928 1.09804C8.50456 1.09714 8.51995 1.09668 8.53546 1.09668C9.14238 1.09668 9.6348 1.58406 9.6348 2.18579C9.6348 2.78752 9.14238 3.2749 8.53546 3.2749C8.15267 3.2749 7.83518 2.99648 7.77855 2.63247C7.69367 2.66728 7.63414 2.74983 7.63414 2.84585V5.479C8.03493 5.64873 8.29919 6.03933 8.30102 6.47622L8.30101 7.04468C8.27952 8.23229 9.18848 9.23518 10.3828 9.34247C10.4195 9.34509 10.4562 9.3468 10.4929 9.3476C11.063 9.33538 11.6115 9.11481 12.03 8.72407C12.5014 8.28698 12.7696 7.67663 12.7712 7.03727V6.4758V6.37721C12.773 5.95913 13.0398 5.58719 13.4381 5.44783V2.84585C13.4381 2.74983 13.3786 2.66728 13.2937 2.63247C13.2371 2.99648 12.9196 3.2749 12.5368 3.2749C11.9299 3.2749 11.4374 2.78752 11.4374 2.18579C11.4374 2.16879 11.4378 2.15189 11.4386 2.13509C11.4378 2.11908 11.4374 2.10298 11.4374 2.08678C11.4374 1.53996 11.8853 1.09668 12.4378 1.09668C12.4523 1.09668 12.4668 1.09714 12.4811 1.09805C12.4996 1.09714 12.5181 1.09668 12.5368 1.09668C12.9271 1.09668 13.2495 1.38611 13.2967 1.76059C13.8601 1.80738 14.303 2.2752 14.303 2.84585V5.479C14.7038 5.64873 14.9681 6.03933 14.9699 6.47622V7.13644C14.9664 9.39741 13.2312 11.2806 10.9686 11.5006V13.6379H15.1053ZM15.2043 20.8987H15.1091C17.1162 20.8966 18.7459 19.299 18.7728 17.3182C18.7731 17.3346 18.7732 17.3509 18.7732 17.3673C18.7732 19.3174 17.1756 20.8987 15.2043 20.8987ZM6.07234 14.298L6.17134 14.298L6.07375 14.3803C5.91535 15.3079 5.09121 15.9713 4.15156 15.9476C5.09722 15.9242 5.91131 15.2409 6.07234 14.298ZM8.49291 3.07533C9.00212 3.04728 9.4097 2.64228 9.43548 2.13761C9.43634 2.15356 9.43678 2.16962 9.43678 2.18579C9.43678 2.67769 9.03347 3.07688 8.53546 3.07688C8.52114 3.07688 8.50695 3.07635 8.49291 3.07533ZM7.76956 2.41681L7.76966 2.42809C7.57862 2.47245 7.43612 2.64249 7.43612 2.84585L7.43612 2.74684C7.43612 2.56457 7.58541 2.41681 7.76956 2.41681ZM8.103 6.94387C8.10248 6.97268 8.10249 7.00137 8.103 7.02996L8.103 6.94387ZM8.103 6.94387V6.47631L8.10301 6.47663L8.103 6.94387ZM13.1047 2.41681C13.1349 2.41681 13.1643 2.42081 13.1922 2.4283L13.1047 2.51582C13.1047 2.82546 12.8506 3.07688 12.5368 3.07688C12.5189 3.07688 12.5011 3.07636 12.4835 3.07535C12.8305 3.05208 13.1047 2.76613 13.1047 2.41681ZM10.7705 11.3109C13.0263 11.1373 14.7684 9.27672 14.7719 7.03727V7.13628C14.7685 9.32369 13.0664 11.1416 10.862 11.3112L10.7705 11.4099V11.3109ZM12.3023 2.18579C12.3023 2.09319 12.3577 2.01312 12.4378 1.97631V2.39527C12.3577 2.35845 12.3023 2.27838 12.3023 2.18579ZM12.1076 2.13298C12.1298 1.95353 12.2636 1.80854 12.4378 1.76805V1.75675C12.2536 1.75675 12.1043 1.90451 12.1043 2.08678C12.1043 2.10246 12.1054 2.11788 12.1076 2.13298ZM8.63447 2.35234C8.70274 2.30238 8.75106 2.22725 8.76544 2.1408C8.75081 2.06778 8.70123 2.00701 8.63447 1.97631V2.35234ZM8.43645 1.75675C8.46673 1.75675 8.49608 1.76074 8.52397 1.76823L8.43645 1.85576L8.43645 1.75675ZM10.9686 17.0372C10.9705 18.8042 12.4178 20.2367 14.204 20.2386H15.1053C16.7459 20.2386 18.079 18.9356 18.1059 17.3182C18.0794 15.7553 16.7907 14.496 15.2043 14.496H10.9686V17.0372ZM10.7705 14.298H10.8696L10.7705 14.397V14.298Z" fill="white"/>
</mask>
<g mask="url(#mask0_0_10879)">
</g>
</g>
</g>
</svg>
