<svg width="20" height="21" viewBox="0 0 20 21" fill="none" xmlns="http://www.w3.org/2000/svg">
<g id="utente/linha">
<path id="Mask" fill-rule="evenodd" clip-rule="evenodd" d="M12.9471 12.8672C12.9471 13.1026 13.0732 13.3128 13.2772 13.4189L16.2945 14.9717C17.3455 15.5138 18 16.6038 18 17.8135V18.8025C18 20.3197 14.5462 20.998 10.499 20.998C6.45361 20.998 3 20.3196 3 18.8025V17.7497C3 16.5857 3.61603 15.5174 4.60835 14.96L7.42513 13.377C7.61745 13.269 7.73672 13.0621 7.73672 12.8367V11.842C7.30222 11.2411 6.89146 10.4521 6.65747 9.54308C6.33988 9.25145 6.15781 8.83742 6.15781 8.39723V7.09479C6.15781 6.75543 6.27031 6.42448 6.47406 6.15463L6.47534 4.53748C6.40237 3.83721 6.56347 2.96778 7.19273 2.22912C7.89206 1.40773 9.00852 0.998047 10.499 0.998047C11.9902 0.998047 13.1081 1.40789 13.8072 2.22907C14.4359 2.96703 14.5932 3.8184 14.526 4.51146V6.15472C14.7297 6.42456 14.8422 6.75547 14.8422 7.09479V8.39723C14.8422 8.96475 14.5402 9.47855 14.0617 9.74593C13.8288 10.4166 13.5164 11.0386 13.1301 11.5996C13.067 11.6914 13.0061 11.7759 12.9471 11.8536V12.8672ZM16.894 18.8025V17.8135C16.894 17.0348 16.4754 16.3368 15.7993 15.9894L12.7831 14.4365C12.203 14.1376 11.8411 13.5353 11.8411 12.8672V11.5253L11.9002 11.364L11.9807 11.27C12.0491 11.1915 12.1324 11.0809 12.2288 10.9412C12.5964 10.4066 12.8866 9.80352 13.091 9.14875L13.1802 8.86748L13.2982 8.83054L13.454 8.78177C13.6236 8.72757 13.7362 8.57255 13.7362 8.39723V7.09479C13.7362 6.98346 13.6896 6.87791 13.6021 6.79723L13.4971 6.69845L13.42 6.51799L13.4277 4.40347C13.4355 4.36344 13.4359 4.14981 13.4017 3.93713C13.3445 3.58126 13.208 3.2501 12.9705 2.97371C12.4987 2.4234 11.6724 2.13707 10.499 2.13707C9.3242 2.13707 8.49597 2.42588 8.02369 2.97963C7.78609 3.25854 7.65062 3.58896 7.59529 3.94176C7.56223 4.15258 7.56382 4.36004 7.57676 4.44433L7.57804 4.49398V6.51837L7.50115 6.69825L7.39628 6.79713C7.30988 6.8769 7.26383 6.98205 7.26383 7.09479V8.39723C7.26383 8.53384 7.33105 8.65975 7.44664 8.73655L7.5544 8.80809L7.65654 8.95693L7.68653 9.08749C7.78428 9.527 7.94389 9.95594 8.14832 10.3651C8.27252 10.6137 8.40558 10.8397 8.53859 11.0388C8.61826 11.158 8.67975 11.2411 8.71277 11.2823L8.78698 11.373L8.84274 11.5302V12.8367C8.84274 13.4787 8.50217 14.069 7.95438 14.3768L5.13717 15.9601C4.50144 16.3172 4.10602 17.0037 4.10602 17.7497V18.8025C4.10602 19.165 6.98923 19.859 10.499 19.859C14.0103 19.859 16.894 19.165 16.894 18.8025Z" fill="#0099CC"/>
<mask id="mask0_0_11525" style="mask-type:luminance" maskUnits="userSpaceOnUse" x="3" y="0" width="15" height="21">
<path id="Mask_2" fill-rule="evenodd" clip-rule="evenodd" d="M12.9471 12.8672C12.9471 13.1026 13.0732 13.3128 13.2772 13.4189L16.2945 14.9717C17.3455 15.5138 18 16.6038 18 17.8135V18.8025C18 20.3197 14.5462 20.998 10.499 20.998C6.45361 20.998 3 20.3196 3 18.8025V17.7497C3 16.5857 3.61603 15.5174 4.60835 14.96L7.42513 13.377C7.61745 13.269 7.73672 13.0621 7.73672 12.8367V11.842C7.30222 11.2411 6.89146 10.4521 6.65747 9.54308C6.33988 9.25145 6.15781 8.83742 6.15781 8.39723V7.09479C6.15781 6.75543 6.27031 6.42448 6.47406 6.15463L6.47534 4.53748C6.40237 3.83721 6.56347 2.96778 7.19273 2.22912C7.89206 1.40773 9.00852 0.998047 10.499 0.998047C11.9902 0.998047 13.1081 1.40789 13.8072 2.22907C14.4359 2.96703 14.5932 3.8184 14.526 4.51146V6.15472C14.7297 6.42456 14.8422 6.75547 14.8422 7.09479V8.39723C14.8422 8.96475 14.5402 9.47855 14.0617 9.74593C13.8288 10.4166 13.5164 11.0386 13.1301 11.5996C13.067 11.6914 13.0061 11.7759 12.9471 11.8536V12.8672ZM16.894 18.8025V17.8135C16.894 17.0348 16.4754 16.3368 15.7993 15.9894L12.7831 14.4365C12.203 14.1376 11.8411 13.5353 11.8411 12.8672V11.5253L11.9002 11.364L11.9807 11.27C12.0491 11.1915 12.1324 11.0809 12.2288 10.9412C12.5964 10.4066 12.8866 9.80352 13.091 9.14875L13.1802 8.86748L13.2982 8.83054L13.454 8.78177C13.6236 8.72757 13.7362 8.57255 13.7362 8.39723V7.09479C13.7362 6.98346 13.6896 6.87791 13.6021 6.79723L13.4971 6.69845L13.42 6.51799L13.4277 4.40347C13.4355 4.36344 13.4359 4.14981 13.4017 3.93713C13.3445 3.58126 13.208 3.2501 12.9705 2.97371C12.4987 2.4234 11.6724 2.13707 10.499 2.13707C9.3242 2.13707 8.49597 2.42588 8.02369 2.97963C7.78609 3.25854 7.65062 3.58896 7.59529 3.94176C7.56223 4.15258 7.56382 4.36004 7.57676 4.44433L7.57804 4.49398V6.51837L7.50115 6.69825L7.39628 6.79713C7.30988 6.8769 7.26383 6.98205 7.26383 7.09479V8.39723C7.26383 8.53384 7.33105 8.65975 7.44664 8.73655L7.5544 8.80809L7.65654 8.95693L7.68653 9.08749C7.78428 9.527 7.94389 9.95594 8.14832 10.3651C8.27252 10.6137 8.40558 10.8397 8.53859 11.0388C8.61826 11.158 8.67975 11.2411 8.71277 11.2823L8.78698 11.373L8.84274 11.5302V12.8367C8.84274 13.4787 8.50217 14.069 7.95438 14.3768L5.13717 15.9601C4.50144 16.3172 4.10602 17.0037 4.10602 17.7497V18.8025C4.10602 19.165 6.98923 19.859 10.499 19.859C14.0103 19.859 16.894 19.165 16.894 18.8025Z" fill="white"/>
</mask>
<g mask="url(#mask0_0_11525)">
</g>
</g>
</svg>
