<svg width="20" height="20" viewBox="0 0 20 20" fill="none" xmlns="http://www.w3.org/2000/svg">
<g id="utente/cheio">
<path id="Mask" fill-rule="evenodd" clip-rule="evenodd" d="M12.6102 11.8681C12.6102 12.1036 12.7448 12.3138 12.9623 12.4199L16.1808 13.9727C17.3019 14.5148 18 15.6048 18 16.8145V17.8035C18 19.3207 14.316 19.999 9.99895 19.999C5.68386 19.999 2 19.3206 2 17.8035V16.7507C2 15.5867 2.6571 14.5184 3.71557 13.9609L6.72014 12.378C6.92528 12.2699 7.0525 12.0631 7.0525 11.8376V10.8429C6.58904 10.2421 6.15089 9.45313 5.9013 8.54406C5.56254 8.25243 5.36833 7.83839 5.36833 7.39821V6.09577C5.36833 5.75641 5.48833 5.42546 5.70566 5.1556L5.70703 3.53846C5.6292 2.83819 5.80103 1.96875 6.47224 1.2301C7.21819 0.408704 8.40909 -0.000976562 9.99895 -0.000976562C11.5896 -0.000976562 12.7819 0.408863 13.5277 1.23004C14.1983 1.968 14.3661 2.81937 14.2944 3.51244V5.15569C14.5117 5.42553 14.6317 5.75645 14.6317 6.09577V7.39821C14.6317 7.96573 14.3095 8.47952 13.7992 8.7469C13.5508 9.4176 13.2175 10.0395 12.8055 10.6006C12.7381 10.6924 12.6732 10.7769 12.6102 10.8546V11.8681Z" fill="#0099CC"/>
<mask id="mask0_0_7227" style="mask-type:luminance" maskUnits="userSpaceOnUse" x="2" y="-1" width="16" height="21">
<path id="Mask_2" fill-rule="evenodd" clip-rule="evenodd" d="M12.6102 11.8681C12.6102 12.1036 12.7448 12.3138 12.9623 12.4199L16.1808 13.9727C17.3019 14.5148 18 15.6048 18 16.8145V17.8035C18 19.3207 14.316 19.999 9.99895 19.999C5.68386 19.999 2 19.3206 2 17.8035V16.7507C2 15.5867 2.6571 14.5184 3.71557 13.9609L6.72014 12.378C6.92528 12.2699 7.0525 12.0631 7.0525 11.8376V10.8429C6.58904 10.2421 6.15089 9.45313 5.9013 8.54406C5.56254 8.25243 5.36833 7.83839 5.36833 7.39821V6.09577C5.36833 5.75641 5.48833 5.42546 5.70566 5.1556L5.70703 3.53846C5.6292 2.83819 5.80103 1.96875 6.47224 1.2301C7.21819 0.408704 8.40909 -0.000976562 9.99895 -0.000976562C11.5896 -0.000976562 12.7819 0.408863 13.5277 1.23004C14.1983 1.968 14.3661 2.81937 14.2944 3.51244V5.15569C14.5117 5.42553 14.6317 5.75645 14.6317 6.09577V7.39821C14.6317 7.96573 14.3095 8.47952 13.7992 8.7469C13.5508 9.4176 13.2175 10.0395 12.8055 10.6006C12.7381 10.6924 12.6732 10.7769 12.6102 10.8546V11.8681Z" fill="white"/>
</mask>
<g mask="url(#mask0_0_7227)">
</g>
</g>
</svg>
